<mxfile host="app.diagrams.net" modified="2023-11-07T01:16:45.108Z" agent="Mozilla/5.0 (Macintosh; Intel Mac OS X 10.15; rv:109.0) Gecko/20100101 Firefox/119.0" etag="PrhVxIO877j8AnC0X-KD" version="22.0.8" type="device">
  <diagram name="Page-1" id="h6xKgZOMdOHrkd1YHwt1">
    <mxGraphModel dx="1060" dy="654" grid="1" gridSize="10" guides="1" tooltips="1" connect="1" arrows="1" fold="1" page="1" pageScale="1" pageWidth="850" pageHeight="1100" math="0" shadow="0">
      <root>
        <mxCell id="0" />
        <mxCell id="1" parent="0" />
        <mxCell id="_lHTtGOWhQhiWamhyAL5-44" value="" style="whiteSpace=wrap;html=1;strokeColor=#000000;fillColor=default;" parent="1" vertex="1">
          <mxGeometry x="100" y="30" width="680" height="560" as="geometry" />
        </mxCell>
        <mxCell id="_lHTtGOWhQhiWamhyAL5-1" value="User/Borrower" style="shape=umlActor;verticalLabelPosition=bottom;verticalAlign=top;html=1;outlineConnect=0;" parent="1" vertex="1">
          <mxGeometry x="150" y="170" width="30" height="60" as="geometry" />
        </mxCell>
        <mxCell id="_lHTtGOWhQhiWamhyAL5-2" value="Store admin" style="shape=umlActor;verticalLabelPosition=bottom;verticalAlign=top;html=1;outlineConnect=0;" parent="1" vertex="1">
          <mxGeometry x="150" y="300" width="30" height="60" as="geometry" />
        </mxCell>
        <mxCell id="_lHTtGOWhQhiWamhyAL5-5" value="See Product Details" style="ellipse;whiteSpace=wrap;html=1;" parent="1" vertex="1">
          <mxGeometry x="660" y="360" width="100" height="66.66" as="geometry" />
        </mxCell>
        <mxCell id="_lHTtGOWhQhiWamhyAL5-6" value="Welcome Page" style="ellipse;whiteSpace=wrap;html=1;" parent="1" vertex="1">
          <mxGeometry x="310" y="253.34" width="100" height="66.66" as="geometry" />
        </mxCell>
        <mxCell id="_lHTtGOWhQhiWamhyAL5-7" value="Dashboard" style="ellipse;whiteSpace=wrap;html=1;" parent="1" vertex="1">
          <mxGeometry x="440" y="166.67000000000002" width="100" height="66.66" as="geometry" />
        </mxCell>
        <mxCell id="_lHTtGOWhQhiWamhyAL5-9" value="&lt;div&gt;See Borrowing&amp;nbsp;&lt;/div&gt;&lt;div&gt;list&lt;/div&gt;" style="ellipse;whiteSpace=wrap;html=1;" parent="1" vertex="1">
          <mxGeometry x="640" y="170" width="100" height="66.66" as="geometry" />
        </mxCell>
        <mxCell id="_lHTtGOWhQhiWamhyAL5-10" value="See Master Data" style="ellipse;whiteSpace=wrap;html=1;" parent="1" vertex="1">
          <mxGeometry x="440" y="300.00000000000006" width="100" height="66.66" as="geometry" />
        </mxCell>
        <mxCell id="_lHTtGOWhQhiWamhyAL5-11" value="Booking Tools" style="ellipse;whiteSpace=wrap;html=1;" parent="1" vertex="1">
          <mxGeometry x="310" y="103.33999999999997" width="100" height="66.66" as="geometry" />
        </mxCell>
        <mxCell id="_lHTtGOWhQhiWamhyAL5-12" value="Scan / Input Jobcard" style="ellipse;whiteSpace=wrap;html=1;" parent="1" vertex="1">
          <mxGeometry x="490" y="483" width="100" height="66.66" as="geometry" />
        </mxCell>
        <mxCell id="_lHTtGOWhQhiWamhyAL5-15" value="&lt;div&gt;See Returning &lt;br&gt;&lt;/div&gt;&lt;div&gt;list&lt;/div&gt;" style="ellipse;whiteSpace=wrap;html=1;" parent="1" vertex="1">
          <mxGeometry x="610" y="70.00000000000006" width="100" height="66.66" as="geometry" />
        </mxCell>
        <mxCell id="_lHTtGOWhQhiWamhyAL5-16" value="" style="endArrow=classic;html=1;rounded=0;exitX=0.5;exitY=0.5;exitDx=0;exitDy=0;exitPerimeter=0;entryX=0;entryY=0.5;entryDx=0;entryDy=0;" parent="1" source="_lHTtGOWhQhiWamhyAL5-1" target="_lHTtGOWhQhiWamhyAL5-6" edge="1">
          <mxGeometry width="50" height="50" relative="1" as="geometry">
            <mxPoint x="270" y="330" as="sourcePoint" />
            <mxPoint x="320" y="280" as="targetPoint" />
          </mxGeometry>
        </mxCell>
        <mxCell id="_lHTtGOWhQhiWamhyAL5-19" value="" style="endArrow=classic;html=1;rounded=0;exitX=0.5;exitY=0.5;exitDx=0;exitDy=0;exitPerimeter=0;entryX=0;entryY=0.5;entryDx=0;entryDy=0;" parent="1" source="_lHTtGOWhQhiWamhyAL5-2" target="_lHTtGOWhQhiWamhyAL5-6" edge="1">
          <mxGeometry width="50" height="50" relative="1" as="geometry">
            <mxPoint x="175" y="210" as="sourcePoint" />
            <mxPoint x="330" y="403" as="targetPoint" />
          </mxGeometry>
        </mxCell>
        <mxCell id="_lHTtGOWhQhiWamhyAL5-20" value="" style="endArrow=none;dashed=1;html=1;dashPattern=1 3;strokeWidth=2;rounded=0;entryX=0;entryY=0;entryDx=0;entryDy=0;exitX=1;exitY=0.5;exitDx=0;exitDy=0;" parent="1" source="_lHTtGOWhQhiWamhyAL5-6" target="_lHTtGOWhQhiWamhyAL5-10" edge="1">
          <mxGeometry width="50" height="50" relative="1" as="geometry">
            <mxPoint x="400" y="300" as="sourcePoint" />
            <mxPoint x="450" y="250" as="targetPoint" />
          </mxGeometry>
        </mxCell>
        <mxCell id="_lHTtGOWhQhiWamhyAL5-21" value="Extends" style="edgeLabel;html=1;align=center;verticalAlign=middle;resizable=0;points=[];" parent="_lHTtGOWhQhiWamhyAL5-20" vertex="1" connectable="0">
          <mxGeometry x="-0.2728" y="-1" relative="1" as="geometry">
            <mxPoint x="3" y="4" as="offset" />
          </mxGeometry>
        </mxCell>
        <mxCell id="_lHTtGOWhQhiWamhyAL5-24" value="&lt;div&gt;See Tools Data&lt;br&gt;&lt;/div&gt;" style="ellipse;whiteSpace=wrap;html=1;" parent="1" vertex="1">
          <mxGeometry x="580" y="253.34000000000006" width="100" height="66.66" as="geometry" />
        </mxCell>
        <mxCell id="_lHTtGOWhQhiWamhyAL5-25" value="" style="endArrow=none;dashed=1;html=1;dashPattern=1 3;strokeWidth=2;rounded=0;entryX=0;entryY=0;entryDx=0;entryDy=0;exitX=1;exitY=0.5;exitDx=0;exitDy=0;" parent="1" source="_lHTtGOWhQhiWamhyAL5-7" target="_lHTtGOWhQhiWamhyAL5-24" edge="1">
          <mxGeometry width="50" height="50" relative="1" as="geometry">
            <mxPoint x="406" y="273" as="sourcePoint" />
            <mxPoint x="464" y="233" as="targetPoint" />
          </mxGeometry>
        </mxCell>
        <mxCell id="_lHTtGOWhQhiWamhyAL5-26" value="Extends" style="edgeLabel;html=1;align=center;verticalAlign=middle;resizable=0;points=[];" parent="_lHTtGOWhQhiWamhyAL5-25" vertex="1" connectable="0">
          <mxGeometry x="-0.2728" y="-1" relative="1" as="geometry">
            <mxPoint x="5" y="4" as="offset" />
          </mxGeometry>
        </mxCell>
        <mxCell id="_lHTtGOWhQhiWamhyAL5-27" value="" style="endArrow=none;dashed=1;html=1;dashPattern=1 3;strokeWidth=2;rounded=0;exitX=1;exitY=0.5;exitDx=0;exitDy=0;" parent="1" source="_lHTtGOWhQhiWamhyAL5-10" edge="1">
          <mxGeometry width="50" height="50" relative="1" as="geometry">
            <mxPoint x="550" y="210" as="sourcePoint" />
            <mxPoint x="584" y="290" as="targetPoint" />
          </mxGeometry>
        </mxCell>
        <mxCell id="_lHTtGOWhQhiWamhyAL5-28" value="Extend" style="edgeLabel;html=1;align=center;verticalAlign=middle;resizable=0;points=[];" parent="_lHTtGOWhQhiWamhyAL5-27" vertex="1" connectable="0">
          <mxGeometry x="-0.2728" y="-1" relative="1" as="geometry">
            <mxPoint x="3" y="-5" as="offset" />
          </mxGeometry>
        </mxCell>
        <mxCell id="_lHTtGOWhQhiWamhyAL5-30" value="" style="endArrow=none;dashed=1;html=1;dashPattern=1 3;strokeWidth=2;rounded=0;entryX=1;entryY=1;entryDx=0;entryDy=0;exitX=0.5;exitY=0;exitDx=0;exitDy=0;" parent="1" source="_lHTtGOWhQhiWamhyAL5-5" target="_lHTtGOWhQhiWamhyAL5-24" edge="1">
          <mxGeometry width="50" height="50" relative="1" as="geometry">
            <mxPoint x="550" y="343" as="sourcePoint" />
            <mxPoint x="594" y="300" as="targetPoint" />
          </mxGeometry>
        </mxCell>
        <mxCell id="_lHTtGOWhQhiWamhyAL5-31" value="Include" style="edgeLabel;html=1;align=center;verticalAlign=middle;resizable=0;points=[];" parent="_lHTtGOWhQhiWamhyAL5-30" vertex="1" connectable="0">
          <mxGeometry x="-0.2728" y="-1" relative="1" as="geometry">
            <mxPoint x="3" y="-5" as="offset" />
          </mxGeometry>
        </mxCell>
        <mxCell id="_lHTtGOWhQhiWamhyAL5-32" value="" style="endArrow=none;dashed=1;html=1;dashPattern=1 3;strokeWidth=2;rounded=0;entryX=0;entryY=1;entryDx=0;entryDy=0;exitX=1;exitY=0;exitDx=0;exitDy=0;" parent="1" source="_lHTtGOWhQhiWamhyAL5-7" target="_lHTtGOWhQhiWamhyAL5-15" edge="1">
          <mxGeometry width="50" height="50" relative="1" as="geometry">
            <mxPoint x="406" y="274" as="sourcePoint" />
            <mxPoint x="464" y="233" as="targetPoint" />
          </mxGeometry>
        </mxCell>
        <mxCell id="_lHTtGOWhQhiWamhyAL5-33" value="Include" style="edgeLabel;html=1;align=center;verticalAlign=middle;resizable=0;points=[];" parent="_lHTtGOWhQhiWamhyAL5-32" vertex="1" connectable="0">
          <mxGeometry x="-0.2728" y="-1" relative="1" as="geometry">
            <mxPoint x="3" y="-5" as="offset" />
          </mxGeometry>
        </mxCell>
        <mxCell id="_lHTtGOWhQhiWamhyAL5-34" value="" style="endArrow=none;dashed=1;html=1;dashPattern=1 3;strokeWidth=2;rounded=0;entryX=0;entryY=0.5;entryDx=0;entryDy=0;exitX=1;exitY=0.5;exitDx=0;exitDy=0;" parent="1" source="_lHTtGOWhQhiWamhyAL5-7" target="_lHTtGOWhQhiWamhyAL5-9" edge="1">
          <mxGeometry width="50" height="50" relative="1" as="geometry">
            <mxPoint x="540" y="200" as="sourcePoint" />
            <mxPoint x="594" y="96" as="targetPoint" />
          </mxGeometry>
        </mxCell>
        <mxCell id="_lHTtGOWhQhiWamhyAL5-35" value="Include" style="edgeLabel;html=1;align=center;verticalAlign=middle;resizable=0;points=[];" parent="_lHTtGOWhQhiWamhyAL5-34" vertex="1" connectable="0">
          <mxGeometry x="-0.2728" y="-1" relative="1" as="geometry">
            <mxPoint x="3" y="-5" as="offset" />
          </mxGeometry>
        </mxCell>
        <mxCell id="_lHTtGOWhQhiWamhyAL5-46" value="Login" style="ellipse;whiteSpace=wrap;html=1;" parent="1" vertex="1">
          <mxGeometry x="870" y="276.67" width="100" height="66.66" as="geometry" />
        </mxCell>
        <mxCell id="_lHTtGOWhQhiWamhyAL5-47" value="" style="endArrow=none;dashed=1;html=1;dashPattern=1 3;strokeWidth=2;rounded=0;entryX=1;entryY=0.5;entryDx=0;entryDy=0;exitX=0;exitY=0.5;exitDx=0;exitDy=0;" parent="1" source="_lHTtGOWhQhiWamhyAL5-46" target="_lHTtGOWhQhiWamhyAL5-44" edge="1">
          <mxGeometry width="50" height="50" relative="1" as="geometry">
            <mxPoint x="720" y="370" as="sourcePoint" />
            <mxPoint x="676" y="320" as="targetPoint" />
          </mxGeometry>
        </mxCell>
        <mxCell id="_lHTtGOWhQhiWamhyAL5-48" value="Include" style="edgeLabel;html=1;align=center;verticalAlign=middle;resizable=0;points=[];" parent="_lHTtGOWhQhiWamhyAL5-47" vertex="1" connectable="0">
          <mxGeometry x="-0.2728" y="-1" relative="1" as="geometry">
            <mxPoint x="3" y="-5" as="offset" />
          </mxGeometry>
        </mxCell>
        <mxCell id="aHpmH3-9ZzsyvmTOygcU-1" value="" style="endArrow=none;dashed=1;html=1;dashPattern=1 3;strokeWidth=2;rounded=0;entryX=0;entryY=1;entryDx=0;entryDy=0;exitX=1;exitY=0;exitDx=0;exitDy=0;" edge="1" parent="1">
          <mxGeometry width="50" height="50" relative="1" as="geometry">
            <mxPoint x="406" y="273" as="sourcePoint" />
            <mxPoint x="464" y="233" as="targetPoint" />
          </mxGeometry>
        </mxCell>
        <mxCell id="aHpmH3-9ZzsyvmTOygcU-2" value="Extends" style="edgeLabel;html=1;align=center;verticalAlign=middle;resizable=0;points=[];" vertex="1" connectable="0" parent="aHpmH3-9ZzsyvmTOygcU-1">
          <mxGeometry x="-0.2728" y="-1" relative="1" as="geometry">
            <mxPoint x="3" y="-5" as="offset" />
          </mxGeometry>
        </mxCell>
        <mxCell id="aHpmH3-9ZzsyvmTOygcU-3" value="" style="endArrow=classic;html=1;rounded=0;exitX=0.5;exitY=0.5;exitDx=0;exitDy=0;exitPerimeter=0;entryX=0;entryY=0.5;entryDx=0;entryDy=0;" edge="1" parent="1" source="_lHTtGOWhQhiWamhyAL5-1" target="_lHTtGOWhQhiWamhyAL5-11">
          <mxGeometry width="50" height="50" relative="1" as="geometry">
            <mxPoint x="510" y="360" as="sourcePoint" />
            <mxPoint x="560" y="310" as="targetPoint" />
          </mxGeometry>
        </mxCell>
        <mxCell id="aHpmH3-9ZzsyvmTOygcU-4" value="Booking List" style="ellipse;whiteSpace=wrap;html=1;" vertex="1" parent="1">
          <mxGeometry x="310" y="390" width="100" height="66.66" as="geometry" />
        </mxCell>
        <mxCell id="aHpmH3-9ZzsyvmTOygcU-5" value="" style="endArrow=classic;html=1;rounded=0;exitX=0.5;exitY=0.5;exitDx=0;exitDy=0;exitPerimeter=0;entryX=0;entryY=0;entryDx=0;entryDy=0;" edge="1" parent="1" source="_lHTtGOWhQhiWamhyAL5-2" target="aHpmH3-9ZzsyvmTOygcU-4">
          <mxGeometry width="50" height="50" relative="1" as="geometry">
            <mxPoint x="510" y="520" as="sourcePoint" />
            <mxPoint x="560" y="470" as="targetPoint" />
          </mxGeometry>
        </mxCell>
        <mxCell id="aHpmH3-9ZzsyvmTOygcU-6" value="" style="endArrow=none;dashed=1;html=1;dashPattern=1 3;strokeWidth=2;rounded=0;exitX=1;exitY=1;exitDx=0;exitDy=0;entryX=0;entryY=0.5;entryDx=0;entryDy=0;" edge="1" parent="1" source="aHpmH3-9ZzsyvmTOygcU-4" target="_lHTtGOWhQhiWamhyAL5-12">
          <mxGeometry width="50" height="50" relative="1" as="geometry">
            <mxPoint x="400" y="456.65999999999997" as="sourcePoint" />
            <mxPoint x="468" y="486.65999999999997" as="targetPoint" />
          </mxGeometry>
        </mxCell>
        <mxCell id="aHpmH3-9ZzsyvmTOygcU-7" value="Extend" style="edgeLabel;html=1;align=center;verticalAlign=middle;resizable=0;points=[];" vertex="1" connectable="0" parent="aHpmH3-9ZzsyvmTOygcU-6">
          <mxGeometry x="-0.2728" y="-1" relative="1" as="geometry">
            <mxPoint x="14" y="-2" as="offset" />
          </mxGeometry>
        </mxCell>
        <mxCell id="aHpmH3-9ZzsyvmTOygcU-8" value="Scan / Input ID Card" style="ellipse;whiteSpace=wrap;html=1;" vertex="1" parent="1">
          <mxGeometry x="490" y="389.99999999999994" width="100" height="66.66" as="geometry" />
        </mxCell>
        <mxCell id="aHpmH3-9ZzsyvmTOygcU-9" value="" style="endArrow=none;dashed=1;html=1;dashPattern=1 3;strokeWidth=2;rounded=0;exitX=1;exitY=0.5;exitDx=0;exitDy=0;entryX=0;entryY=0.5;entryDx=0;entryDy=0;" edge="1" parent="1" source="aHpmH3-9ZzsyvmTOygcU-4" target="aHpmH3-9ZzsyvmTOygcU-8">
          <mxGeometry width="50" height="50" relative="1" as="geometry">
            <mxPoint x="406" y="457" as="sourcePoint" />
            <mxPoint x="490" y="526" as="targetPoint" />
          </mxGeometry>
        </mxCell>
        <mxCell id="aHpmH3-9ZzsyvmTOygcU-10" value="Extend" style="edgeLabel;html=1;align=center;verticalAlign=middle;resizable=0;points=[];" vertex="1" connectable="0" parent="aHpmH3-9ZzsyvmTOygcU-9">
          <mxGeometry x="-0.2728" y="-1" relative="1" as="geometry">
            <mxPoint x="14" y="-2" as="offset" />
          </mxGeometry>
        </mxCell>
      </root>
    </mxGraphModel>
  </diagram>
</mxfile>
